<svg width="2731" height="704" viewBox="0 0 2731 704" fill="none" xmlns="http://www.w3.org/2000/svg">
<g clip-path="url(#clip0_422_2839)">
<mask id="mask0_422_2839" style="mask-type:luminance" maskUnits="userSpaceOnUse" x="65" y="92" width="601" height="520">
<path fill-rule="evenodd" clip-rule="evenodd" d="M426.805 327.272L427.919 346.781L407.082 338.268L426.805 327.272ZM477.735 224.033C477.735 224.033 507.763 264.784 430.005 240.374C430.005 240.374 446.981 222.296 477.735 224.033ZM437.012 290.36C461.84 319.047 457.796 366.852 457.796 366.852C451.256 356.716 433.735 349.068 433.735 349.068C441.431 315.029 437.012 290.36 437.012 290.36ZM494.361 327.548L466.075 365.415L464.439 326.302L494.361 327.543V327.548ZM491.978 343.162L498.858 396.352L468.242 372.208L491.971 343.162H491.978ZM533.43 340.363C530.351 383.958 499.937 413.796 499.937 413.796C511.875 371.905 503.016 328.888 503.016 328.888L533.422 340.363H533.43ZM304.196 327.266L303.087 346.776L323.925 338.262L304.196 327.266ZM253.265 224.027C253.265 224.027 223.237 264.778 300.995 240.369C300.995 240.369 284.02 222.291 253.265 224.027ZM293.995 290.354C269.165 319.041 273.209 366.844 273.209 366.844C279.75 356.709 297.266 349.061 297.266 349.061C289.568 315.024 293.995 290.354 293.995 290.354ZM236.639 327.543L264.93 365.408L266.569 326.297L236.639 327.537V327.543ZM239.021 343.157L232.137 396.345L262.751 372.201L239.021 343.157ZM197.57 340.357C200.649 383.954 231.061 413.789 231.061 413.789C219.129 371.901 227.983 328.882 227.983 328.882L197.57 340.357ZM365.503 193.407C365.503 193.407 453.451 95.4963 516.578 165.107C558.492 82.3073 596.234 244.189 609.736 251.924C548.416 237.216 534.696 116.968 420.732 195.704C533.303 141.367 535.764 241.523 561.616 266.458C561.616 266.458 530.34 251.064 496.469 257.76C496.469 257.76 504.748 235.197 489.928 217.794C489.928 217.794 510.521 217.604 520.144 231.178C500.785 123.698 405.947 280.542 386.184 213.777C386.184 213.777 380.218 230.221 385.028 241.696C385.028 241.696 370.036 229.072 365.503 197.904C360.971 229.072 345.972 241.696 345.972 241.696C350.787 230.221 344.815 213.777 344.815 213.777C325.052 280.542 230.22 123.698 210.862 231.178C220.489 217.604 241.083 217.794 241.083 217.794C226.263 235.197 234.541 257.76 234.541 257.76C200.667 251.07 169.395 266.458 169.395 266.458C195.252 241.523 197.704 141.367 310.279 195.704C196.31 116.968 182.588 237.216 121.276 251.924C134.776 244.184 172.509 82.3073 214.435 165.107C277.566 95.4963 365.511 193.407 365.511 193.407H365.503ZM427.275 137.182C427.275 137.182 391.495 132.593 365.503 158.982C339.512 132.593 303.732 137.182 303.732 137.182C325.766 114.896 405.24 114.896 427.275 137.182ZM635.356 359.738C664.339 320.264 639.266 298.469 624.881 290.031C644.965 289.65 660.577 279.093 666 259.947C600.558 254.4 622.46 59.8023 511.628 128.154C503.935 97.8686 454.706 113.488 447.119 116.091C403.949 83.9697 327.028 83.9697 283.863 116.091C276.282 113.488 227.053 97.8686 219.356 128.154C108.536 59.8138 130.437 254.411 65 259.959C70.4203 279.104 86.0357 289.662 106.113 290.042C91.7406 298.481 66.6616 320.276 95.6389 359.752C-73.5946 696.083 804.597 696.083 635.356 359.752V359.738ZM612.715 379.952C612.715 379.952 633.125 466.389 553.058 521.459C553.058 521.459 569.61 472.127 544.202 434.644C544.202 434.644 559.213 503.481 469.137 569.268C469.137 569.268 499.166 540.964 496.08 495.071C473.461 609.339 257.53 609.339 234.908 495.071C231.829 540.964 261.852 569.268 261.852 569.268C171.771 503.481 186.789 434.644 186.789 434.644C161.383 472.127 177.935 521.459 177.935 521.459C97.8694 466.385 118.278 379.952 118.278 379.952C131.75 404.813 154.076 410.933 154.076 410.933C56.5415 290.515 162.227 283.087 285.722 274.199C266.093 264.444 249.733 266.746 249.733 266.746C274.848 254.735 317.639 237.644 340.383 260.241C340.383 260.241 315.356 261.004 309.971 284.714C310.714 285.39 380.602 332.525 350.393 332.525L338.652 326.406L329.989 333.096C329.989 333.096 317.668 323.531 301.89 317.032C301.89 317.032 297.655 288.923 303.429 272.091C303.429 272.091 284.95 279.358 274.557 309.956C274.557 309.956 231.445 293.125 171.011 316.836C171.011 316.836 149.841 389.119 242.995 455.669C244.487 323.376 486.506 323.376 488.005 455.669C581.16 389.127 559.983 316.836 559.983 316.836C499.548 293.125 456.438 309.956 456.438 309.956C446.044 279.358 427.565 272.091 427.565 272.091C433.338 288.923 429.103 317.032 429.103 317.032C413.318 323.531 401.005 333.096 401.005 333.096L392.343 326.406L380.602 332.525C350.393 332.525 420.279 285.39 421.018 284.714C415.627 261.004 390.604 260.241 390.604 260.241C413.354 237.644 456.148 254.735 481.26 266.746C481.26 266.746 464.902 264.449 445.27 274.199C568.768 283.087 674.453 290.515 576.925 410.933C576.925 410.933 599.25 404.813 612.723 379.952H612.715Z" fill="white"/>
</mask>
<g mask="url(#mask0_422_2839)">
<path fill-rule="evenodd" clip-rule="evenodd" d="M426.805 327.272L427.919 346.781L407.082 338.268L426.805 327.272ZM477.735 224.033C477.735 224.033 507.763 264.784 430.005 240.374C430.005 240.374 446.981 222.296 477.735 224.033ZM437.012 290.36C461.84 319.047 457.796 366.852 457.796 366.852C451.256 356.716 433.735 349.068 433.735 349.068C441.431 315.029 437.012 290.36 437.012 290.36ZM494.361 327.548L466.075 365.415L464.439 326.302L494.361 327.543V327.548ZM491.978 343.162L498.858 396.352L468.242 372.208L491.971 343.162H491.978ZM533.43 340.363C530.351 383.958 499.937 413.796 499.937 413.796C511.875 371.905 503.016 328.888 503.016 328.888L533.422 340.363H533.43ZM304.196 327.266L303.087 346.776L323.925 338.262L304.196 327.266ZM253.265 224.027C253.265 224.027 223.237 264.778 300.995 240.369C300.995 240.369 284.02 222.291 253.265 224.027ZM293.995 290.354C269.165 319.041 273.209 366.844 273.209 366.844C279.75 356.709 297.266 349.061 297.266 349.061C289.568 315.024 293.995 290.354 293.995 290.354ZM236.639 327.543L264.93 365.408L266.569 326.297L236.639 327.537V327.543ZM239.021 343.157L232.137 396.345L262.751 372.201L239.021 343.157ZM197.57 340.357C200.649 383.954 231.061 413.789 231.061 413.789C219.129 371.901 227.983 328.882 227.983 328.882L197.57 340.357ZM365.503 193.407C365.503 193.407 453.451 95.4963 516.578 165.107C558.492 82.3073 596.234 244.189 609.736 251.924C548.416 237.216 534.696 116.968 420.732 195.704C533.303 141.367 535.764 241.523 561.616 266.458C561.616 266.458 530.34 251.064 496.469 257.76C496.469 257.76 504.748 235.197 489.928 217.794C489.928 217.794 510.521 217.604 520.144 231.178C500.785 123.698 405.947 280.542 386.184 213.777C386.184 213.777 380.218 230.221 385.028 241.696C385.028 241.696 370.036 229.072 365.503 197.904C360.971 229.072 345.972 241.696 345.972 241.696C350.787 230.221 344.815 213.777 344.815 213.777C325.052 280.542 230.22 123.698 210.862 231.178C220.489 217.604 241.083 217.794 241.083 217.794C226.263 235.197 234.541 257.76 234.541 257.76C200.667 251.07 169.395 266.458 169.395 266.458C195.252 241.523 197.704 141.367 310.279 195.704C196.31 116.968 182.588 237.216 121.276 251.924C134.776 244.184 172.509 82.3073 214.435 165.107C277.566 95.4963 365.511 193.407 365.511 193.407H365.503ZM427.275 137.182C427.275 137.182 391.495 132.593 365.503 158.982C339.512 132.593 303.732 137.182 303.732 137.182C325.766 114.896 405.24 114.896 427.275 137.182ZM635.356 359.738C664.339 320.264 639.266 298.469 624.881 290.031C644.965 289.65 660.577 279.093 666 259.947C600.558 254.4 622.46 59.8023 511.628 128.154C503.935 97.8686 454.706 113.488 447.119 116.091C403.949 83.9697 327.028 83.9697 283.863 116.091C276.282 113.488 227.053 97.8686 219.356 128.154C108.536 59.8138 130.437 254.411 65 259.959C70.4203 279.104 86.0357 289.662 106.113 290.042C91.7406 298.481 66.6616 320.276 95.6389 359.752C-73.5946 696.083 804.597 696.083 635.356 359.752V359.738ZM612.715 379.952C612.715 379.952 633.125 466.389 553.058 521.459C553.058 521.459 569.61 472.127 544.202 434.644C544.202 434.644 559.213 503.481 469.137 569.268C469.137 569.268 499.166 540.964 496.08 495.071C473.461 609.339 257.53 609.339 234.908 495.071C231.829 540.964 261.852 569.268 261.852 569.268C171.771 503.481 186.789 434.644 186.789 434.644C161.383 472.127 177.935 521.459 177.935 521.459C97.8694 466.385 118.278 379.952 118.278 379.952C131.75 404.813 154.076 410.933 154.076 410.933C56.5415 290.515 162.227 283.087 285.722 274.199C266.093 264.444 249.733 266.746 249.733 266.746C274.848 254.735 317.639 237.644 340.383 260.241C340.383 260.241 315.356 261.004 309.971 284.714C310.714 285.39 380.602 332.525 350.393 332.525L338.652 326.406L329.989 333.096C329.989 333.096 317.668 323.531 301.89 317.032C301.89 317.032 297.655 288.923 303.429 272.091C303.429 272.091 284.95 279.358 274.557 309.956C274.557 309.956 231.445 293.125 171.011 316.836C171.011 316.836 149.841 389.119 242.995 455.669C244.487 323.376 486.506 323.376 488.005 455.669C581.16 389.127 559.983 316.836 559.983 316.836C499.548 293.125 456.438 309.956 456.438 309.956C446.044 279.358 427.565 272.091 427.565 272.091C433.338 288.923 429.103 317.032 429.103 317.032C413.318 323.531 401.005 333.096 401.005 333.096L392.343 326.406L380.602 332.525C350.393 332.525 420.279 285.39 421.018 284.714C415.627 261.004 390.604 260.241 390.604 260.241C413.354 237.644 456.148 254.735 481.26 266.746C481.26 266.746 464.902 264.449 445.27 274.199C568.768 283.087 674.453 290.515 576.925 410.933C576.925 410.933 599.25 404.813 612.723 379.952H612.715Z" fill="#2D2D2D" stroke="#686767" stroke-opacity="0.9" stroke-width="0.8"/>
</g>
<path d="M460 231C460 236.523 454.851 241 448.5 241C442.149 241 437 236.523 437 231C437 225.477 442.149 221 448.5 221C454.851 221 460 225.477 460 231Z" fill="#2D2D2D"/>
<path d="M294 231C294 236.523 288.851 241 282.5 241C276.149 241 271 236.523 271 231C271 225.477 276.149 221 282.5 221C288.851 221 294 225.477 294 231Z" fill="#2D2D2D"/>
</g>
<path d="M785.23 472.341C784.89 469.462 783.511 467.227 781.093 465.636C778.675 464.045 775.709 463.25 772.195 463.25C769.626 463.25 767.378 463.667 765.451 464.5C763.543 465.333 762.051 466.479 760.974 467.937C759.916 469.396 759.387 471.053 759.387 472.909C759.387 474.462 759.756 475.797 760.493 476.915C761.248 478.013 762.212 478.932 763.383 479.67C764.554 480.39 765.782 480.987 767.067 481.46C768.351 481.915 769.532 482.284 770.609 482.568L776.502 484.159C778.014 484.557 779.695 485.106 781.546 485.807C783.417 486.508 785.202 487.464 786.902 488.676C788.621 489.869 790.038 491.403 791.152 493.278C792.267 495.153 792.824 497.455 792.824 500.182C792.824 503.326 792.002 506.167 790.359 508.705C788.734 511.242 786.354 513.259 783.218 514.756C780.101 516.252 776.314 517 771.855 517C767.699 517 764.101 516.328 761.059 514.983C758.037 513.638 755.657 511.763 753.919 509.358C752.2 506.953 751.227 504.159 751 500.977H758.254C758.443 503.174 759.18 504.992 760.464 506.432C761.768 507.852 763.411 508.913 765.395 509.614C767.397 510.295 769.551 510.636 771.855 510.636C774.538 510.636 776.946 510.201 779.081 509.33C781.216 508.439 782.906 507.208 784.153 505.636C785.4 504.045 786.023 502.189 786.023 500.068C786.023 498.136 785.485 496.564 784.408 495.352C783.331 494.14 781.915 493.155 780.158 492.398C778.401 491.64 776.502 490.977 774.462 490.409L767.322 488.364C762.788 487.057 759.199 485.191 756.554 482.767C753.909 480.343 752.587 477.17 752.587 473.25C752.587 469.992 753.465 467.152 755.222 464.727C756.998 462.284 759.378 460.39 762.363 459.045C765.366 457.682 768.72 457 772.422 457C776.162 457 779.487 457.672 782.396 459.017C785.306 460.343 787.61 462.161 789.31 464.472C791.029 466.782 791.936 469.405 792.031 472.341H785.23Z" fill="#D87330"/>
<path d="M916.381 486.886C916.381 493.023 915.275 498.326 913.065 502.795C910.855 507.265 907.823 510.712 903.969 513.136C900.116 515.561 895.714 516.773 890.765 516.773C885.815 516.773 881.414 515.561 877.56 513.136C873.706 510.712 870.674 507.265 868.464 502.795C866.254 498.326 865.149 493.023 865.149 486.886C865.149 480.75 866.254 475.447 868.464 470.977C870.674 466.508 873.706 463.061 877.56 460.636C881.414 458.212 885.815 457 890.765 457C895.714 457 900.116 458.212 903.969 460.636C907.823 463.061 910.855 466.508 913.065 470.977C915.275 475.447 916.381 480.75 916.381 486.886ZM909.58 486.886C909.58 481.848 908.739 477.597 907.058 474.131C905.396 470.665 903.138 468.042 900.286 466.261C897.452 464.481 894.278 463.591 890.765 463.591C887.251 463.591 884.068 464.481 881.215 466.261C878.382 468.042 876.124 470.665 874.443 474.131C872.781 477.597 871.95 481.848 871.95 486.886C871.95 491.924 872.781 496.176 874.443 499.642C876.124 503.108 878.382 505.731 881.215 507.511C884.068 509.292 887.251 510.182 890.765 510.182C894.278 510.182 897.452 509.292 900.286 507.511C903.138 505.731 905.396 503.108 907.058 499.642C908.739 496.176 909.58 491.924 909.58 486.886Z" fill="#D87330"/>
<path d="M1037.93 475.977H1030.9C1030.49 473.951 1029.76 472.17 1028.72 470.636C1027.7 469.102 1026.46 467.814 1024.98 466.773C1023.53 465.712 1021.91 464.917 1020.14 464.386C1018.36 463.856 1016.51 463.591 1014.58 463.591C1011.07 463.591 1007.89 464.481 1005.03 466.261C1002.2 468.042 999.943 470.665 998.262 474.131C996.599 477.597 995.768 481.848 995.768 486.886C995.768 491.924 996.599 496.176 998.262 499.642C999.943 503.108 1002.2 505.731 1005.03 507.511C1007.89 509.292 1011.07 510.182 1014.58 510.182C1016.51 510.182 1018.36 509.917 1020.14 509.386C1021.91 508.856 1023.53 508.07 1024.98 507.028C1026.46 505.968 1027.7 504.67 1028.72 503.136C1029.76 501.583 1030.49 499.803 1030.9 497.795H1037.93C1037.4 500.769 1036.44 503.43 1035.04 505.778C1033.64 508.127 1031.91 510.125 1029.83 511.773C1027.75 513.402 1025.42 514.642 1022.83 515.494C1020.26 516.347 1017.51 516.773 1014.58 516.773C1009.63 516.773 1005.23 515.561 1001.38 513.136C997.525 510.712 994.493 507.265 992.283 502.795C990.073 498.326 988.967 493.023 988.967 486.886C988.967 480.75 990.073 475.447 992.283 470.977C994.493 466.508 997.525 463.061 1001.38 460.636C1005.23 458.212 1009.63 457 1014.58 457C1017.51 457 1020.26 457.426 1022.83 458.278C1025.42 459.131 1027.75 460.381 1029.83 462.028C1031.91 463.657 1033.64 465.646 1035.04 467.994C1036.44 470.324 1037.4 472.985 1037.93 475.977Z" fill="#D87330"/>
<path d="M1119.35 457.795V515.977H1112.33V457.795H1119.35Z" fill="#D87330"/>
<path d="M1198.86 515.977H1191.49L1212.8 457.795H1220.06L1241.37 515.977H1234L1216.66 467H1216.2L1198.86 515.977ZM1201.58 493.25H1231.28V499.5H1201.58V493.25Z" fill="#D87330"/>
<path d="M1313.44 515.977V457.795H1320.47V509.727H1347.45V515.977H1313.44Z" fill="#D87330"/>
<path d="M1506.84 515.977V457.795H1541.64V464.045H1513.87V483.705H1539.03V489.955H1513.87V515.977H1506.84Z" fill="#D87330"/>
<path d="M1623.74 457.795V515.977H1616.71V457.795H1623.74Z" fill="#D87330"/>
<path d="M1746.89 457.795V515.977H1740.09L1708.46 470.295H1707.9V515.977H1700.87V457.795H1707.67L1739.41 503.591H1739.97V457.795H1746.89Z" fill="#D87330"/>
<path d="M1826.37 515.977H1819L1840.31 457.795H1847.56L1868.87 515.977H1861.5L1844.16 467H1843.71L1826.37 515.977ZM1829.09 493.25H1858.78V499.5H1829.09V493.25Z" fill="#D87330"/>
<path d="M1986.97 457.795V515.977H1980.16L1948.54 470.295H1947.97V515.977H1940.95V457.795H1947.75L1979.48 503.591H1980.05V457.795H1986.97Z" fill="#D87330"/>
<path d="M2110.76 475.977H2103.74C2103.32 473.951 2102.59 472.17 2101.55 470.636C2100.53 469.102 2099.29 467.814 2097.81 466.773C2096.36 465.712 2094.74 464.917 2092.97 464.386C2091.19 463.856 2089.34 463.591 2087.41 463.591C2083.9 463.591 2080.72 464.481 2077.86 466.261C2075.03 468.042 2072.77 470.665 2071.09 474.131C2069.43 477.597 2068.6 481.848 2068.6 486.886C2068.6 491.924 2069.43 496.176 2071.09 499.642C2072.77 503.108 2075.03 505.731 2077.86 507.511C2080.72 509.292 2083.9 510.182 2087.41 510.182C2089.34 510.182 2091.19 509.917 2092.97 509.386C2094.74 508.856 2096.36 508.07 2097.81 507.028C2099.29 505.968 2100.53 504.67 2101.55 503.136C2102.59 501.583 2103.32 499.803 2103.74 497.795H2110.76C2110.23 500.769 2109.27 503.43 2107.87 505.778C2106.47 508.127 2104.74 510.125 2102.66 511.773C2100.58 513.402 2098.25 514.642 2095.66 515.494C2093.09 516.347 2090.34 516.773 2087.41 516.773C2082.46 516.773 2078.06 515.561 2074.21 513.136C2070.36 510.712 2067.32 507.265 2065.11 502.795C2062.9 498.326 2061.8 493.023 2061.8 486.886C2061.8 480.75 2062.9 475.447 2065.11 470.977C2067.32 466.508 2070.36 463.061 2074.21 460.636C2078.06 458.212 2082.46 457 2087.41 457C2090.34 457 2093.09 457.426 2095.66 458.278C2098.25 459.131 2100.58 460.381 2102.66 462.028C2104.74 463.657 2106.47 465.646 2107.87 467.994C2109.27 470.324 2110.23 472.985 2110.76 475.977Z" fill="#D87330"/>
<path d="M2185.16 515.977V457.795H2220.18V464.045H2192.18V483.705H2218.37V489.955H2192.18V509.727H2220.63V515.977H2185.16Z" fill="#D87330"/>
<path d="M2381.36 515.977V457.795H2388.39V483.705H2419.33V457.795H2426.36V515.977H2419.33V489.955H2388.39V515.977H2381.36Z" fill="#D87330"/>
<path d="M2541.55 457.795H2548.58V496.318C2548.58 500.295 2547.64 503.847 2545.77 506.972C2543.92 510.078 2541.31 512.53 2537.92 514.33C2534.54 516.11 2530.58 517 2526.02 517C2521.47 517 2517.5 516.11 2514.12 514.33C2510.74 512.53 2508.11 510.078 2506.24 506.972C2504.39 503.847 2503.47 500.295 2503.47 496.318V457.795H2510.49V495.75C2510.49 498.591 2511.12 501.119 2512.36 503.335C2513.61 505.532 2515.39 507.265 2517.69 508.534C2520.02 509.784 2522.79 510.409 2526.02 510.409C2529.25 510.409 2532.03 509.784 2534.35 508.534C2536.68 507.265 2538.45 505.532 2539.68 503.335C2540.93 501.119 2541.55 498.591 2541.55 495.75V457.795Z" fill="#D87330"/>
<path d="M2625.65 515.977V457.795H2645.94C2649.98 457.795 2653.31 458.496 2655.94 459.898C2658.57 461.28 2660.52 463.146 2661.81 465.494C2663.09 467.824 2663.73 470.409 2663.73 473.25C2663.73 475.75 2663.29 477.814 2662.4 479.443C2661.53 481.072 2660.38 482.36 2658.94 483.307C2657.53 484.254 2655.99 484.955 2654.33 485.409V485.977C2656.1 486.091 2657.89 486.716 2659.68 487.852C2661.48 488.989 2662.98 490.617 2664.19 492.739C2665.4 494.86 2666 497.455 2666 500.523C2666 503.439 2665.34 506.062 2664.02 508.392C2662.69 510.722 2660.61 512.568 2657.75 513.932C2654.9 515.295 2651.19 515.977 2646.62 515.977H2625.65ZM2632.68 509.727H2646.62C2651.21 509.727 2654.47 508.837 2656.39 507.057C2658.34 505.258 2659.31 503.08 2659.31 500.523C2659.31 498.553 2658.81 496.735 2657.81 495.068C2656.81 493.383 2655.38 492.038 2653.53 491.034C2651.68 490.011 2649.49 489.5 2646.96 489.5H2632.68V509.727ZM2632.68 483.364H2645.71C2647.83 483.364 2649.74 482.947 2651.44 482.114C2653.15 481.28 2654.51 480.106 2655.52 478.591C2656.54 477.076 2657.05 475.295 2657.05 473.25C2657.05 470.693 2656.16 468.525 2654.38 466.744C2652.61 464.945 2649.79 464.045 2645.94 464.045H2632.68V483.364Z" fill="#D87330"/>
<path d="M751 349.932V175.386H820.886C833.727 175.386 844.437 177.29 853.017 181.097C861.597 184.903 868.045 190.188 872.364 196.949C876.682 203.653 878.841 211.381 878.841 220.131C878.841 226.949 877.477 232.943 874.75 238.114C872.023 243.227 868.273 247.432 863.5 250.727C858.784 253.966 853.386 256.267 847.307 257.631V259.335C853.955 259.619 860.176 261.494 865.972 264.96C871.824 268.426 876.568 273.284 880.205 279.534C883.841 285.727 885.659 293.114 885.659 301.693C885.659 310.955 883.358 319.222 878.756 326.494C874.21 333.71 867.477 339.42 858.557 343.625C849.636 347.83 838.642 349.932 825.574 349.932H751ZM787.903 319.761H817.989C828.273 319.761 835.773 317.801 840.489 313.881C845.205 309.903 847.563 304.619 847.563 298.028C847.563 293.199 846.398 288.938 844.068 285.244C841.739 281.551 838.415 278.653 834.097 276.551C829.835 274.449 824.75 273.398 818.841 273.398H787.903V319.761ZM787.903 248.426H815.261C820.318 248.426 824.807 247.545 828.727 245.784C832.705 243.966 835.83 241.409 838.102 238.114C840.432 234.818 841.597 230.869 841.597 226.267C841.597 219.96 839.352 214.875 834.864 211.011C830.432 207.148 824.125 205.216 815.943 205.216H787.903V248.426Z" fill="black"/>
<path d="M939.757 349.932H900.212L960.467 175.386H1008.02L1068.19 349.932H1028.65L984.928 215.273H983.564L939.757 349.932ZM937.286 281.324H1030.69V310.131H937.286V281.324Z" fill="black"/>
<path d="M1089.2 349.932V175.386H1158.07C1171.25 175.386 1182.5 177.744 1191.82 182.46C1201.19 187.119 1208.32 193.739 1213.21 202.318C1218.15 210.841 1220.62 220.869 1220.62 232.403C1220.62 243.994 1218.12 253.966 1213.12 262.318C1208.12 270.614 1200.88 276.977 1191.39 281.409C1181.96 285.841 1170.54 288.057 1157.13 288.057H1111.02V258.398H1151.16C1158.21 258.398 1164.06 257.432 1168.72 255.5C1173.38 253.568 1176.85 250.67 1179.12 246.807C1181.45 242.943 1182.61 238.142 1182.61 232.403C1182.61 226.608 1181.45 221.722 1179.12 217.744C1176.85 213.767 1173.35 210.756 1168.63 208.71C1163.98 206.608 1158.1 205.557 1150.99 205.557H1126.11V349.932H1089.2ZM1183.46 270.5L1226.85 349.932H1186.11L1143.66 270.5H1183.46Z" fill="black"/>
<path d="M1246.7 349.932V175.386H1283.61V252.347H1285.91L1348.72 175.386H1392.95L1328.18 253.54L1393.72 349.932H1349.57L1301.76 278.17L1283.61 300.33V349.932H1246.7Z" fill="black"/>
<path d="M1422.23 349.932V175.386H1476.01C1487.09 175.386 1496.58 177.659 1504.47 182.205C1512.43 186.75 1518.54 192.972 1522.8 200.869C1527.06 208.767 1529.19 217.773 1529.19 227.886C1529.19 237.886 1527.06 246.835 1522.8 254.733C1518.54 262.631 1512.43 268.881 1504.47 273.483C1496.58 278.028 1487.12 280.301 1476.09 280.301H1429.73V270.415H1475.84C1484.81 270.415 1492.48 268.597 1498.85 264.96C1505.21 261.267 1510.1 256.239 1513.51 249.875C1516.92 243.455 1518.62 236.125 1518.62 227.886C1518.62 219.591 1516.92 212.233 1513.51 205.812C1510.1 199.392 1505.18 194.364 1498.76 190.727C1492.4 187.091 1484.73 185.273 1475.75 185.273H1432.88V349.932H1422.23Z" fill="black"/>
<path d="M1570.12 349.932V175.386H1623.9C1634.92 175.386 1644.41 177.545 1652.36 181.864C1660.32 186.182 1666.43 192.176 1670.69 199.847C1674.95 207.46 1677.08 216.324 1677.08 226.438C1677.08 236.438 1674.95 245.244 1670.69 252.858C1666.43 260.415 1660.32 266.324 1652.36 270.585C1644.47 274.847 1635.01 276.977 1623.98 276.977H1575.83V267.006H1623.73C1632.7 267.006 1640.38 265.33 1646.74 261.977C1653.1 258.625 1657.99 253.938 1661.4 247.915C1664.81 241.835 1666.51 234.676 1666.51 226.438C1666.51 218.142 1664.81 210.926 1661.4 204.79C1657.99 198.597 1653.07 193.795 1646.65 190.386C1640.29 186.977 1632.62 185.273 1623.64 185.273H1580.77V349.932H1570.12ZM1641.8 270.841L1684.75 349.932H1672.48L1629.78 270.841H1641.8Z" fill="black"/>
<path d="M1858.49 262.659C1858.49 280.67 1855.36 296.409 1849.11 309.875C1842.86 323.284 1834.17 333.71 1823.03 341.153C1811.95 348.597 1799.17 352.318 1784.68 352.318C1770.13 352.318 1757.29 348.597 1746.16 341.153C1735.08 333.653 1726.41 323.199 1720.16 309.79C1713.91 296.324 1710.79 280.614 1710.79 262.659C1710.79 244.648 1713.91 228.937 1720.16 215.528C1726.47 202.119 1735.16 191.693 1746.24 184.25C1757.32 176.75 1770.13 173 1784.68 173C1799.17 173 1811.95 176.722 1823.03 184.165C1834.17 191.608 1842.86 202.062 1849.11 215.528C1855.36 228.937 1858.49 244.648 1858.49 262.659ZM1848.09 262.659C1848.09 246.466 1845.36 232.432 1839.91 220.557C1834.51 208.682 1827.04 199.506 1817.49 193.028C1807.95 186.494 1797.01 183.227 1784.68 183.227C1772.35 183.227 1761.41 186.466 1751.87 192.943C1742.32 199.364 1734.82 208.54 1729.37 220.472C1723.97 232.347 1721.27 246.409 1721.27 262.659C1721.27 278.739 1723.94 292.744 1729.28 304.676C1734.68 316.551 1742.15 325.756 1751.7 332.29C1761.24 338.824 1772.24 342.091 1784.68 342.091C1797.01 342.091 1807.95 338.852 1817.49 332.375C1827.04 325.841 1834.51 316.636 1839.91 304.761C1845.36 292.886 1848.09 278.852 1848.09 262.659Z" fill="black"/>
<path d="M1881.26 185.273V175.386H2003.56V185.273H1947.74V349.932H1937.09V185.273H1881.26Z" fill="black"/>
<path d="M2173.95 262.659C2173.95 280.67 2170.83 296.409 2164.58 309.875C2158.33 323.284 2149.64 333.71 2138.5 341.153C2127.42 348.597 2114.64 352.318 2100.15 352.318C2085.6 352.318 2072.76 348.597 2061.62 341.153C2050.55 333.653 2041.88 323.199 2035.63 309.79C2029.38 296.324 2026.26 280.614 2026.26 262.659C2026.26 244.648 2029.38 228.937 2035.63 215.528C2041.94 202.119 2050.63 191.693 2061.71 184.25C2072.79 176.75 2085.6 173 2100.15 173C2114.64 173 2127.42 176.722 2138.5 184.165C2149.64 191.608 2158.33 202.062 2164.58 215.528C2170.83 228.937 2173.95 244.648 2173.95 262.659ZM2163.56 262.659C2163.56 246.466 2160.83 232.432 2155.38 220.557C2149.98 208.682 2142.51 199.506 2132.96 193.028C2123.41 186.494 2112.48 183.227 2100.15 183.227C2087.82 183.227 2076.88 186.466 2067.34 192.943C2057.79 199.364 2050.29 208.54 2044.84 220.472C2039.44 232.347 2036.74 246.409 2036.74 262.659C2036.74 278.739 2039.41 292.744 2044.75 304.676C2050.15 316.551 2057.62 325.756 2067.16 332.29C2076.71 338.824 2087.7 342.091 2100.15 342.091C2112.48 342.091 2123.41 338.852 2132.96 332.375C2142.51 325.841 2149.98 316.636 2155.38 304.761C2160.83 292.886 2163.56 278.852 2163.56 262.659Z" fill="black"/>
<path d="M2348.54 229.932H2337.63C2336.5 224.023 2334.37 218.313 2331.24 212.801C2328.12 207.233 2324.08 202.233 2319.14 197.801C2314.25 193.313 2308.57 189.761 2302.09 187.148C2295.62 184.534 2288.46 183.227 2280.62 183.227C2269.14 183.227 2258.57 186.295 2248.91 192.432C2239.31 198.511 2231.61 207.46 2225.82 219.278C2220.08 231.097 2217.21 245.557 2217.21 262.659C2217.21 279.875 2220.08 294.392 2225.82 306.21C2231.61 318.028 2239.31 326.977 2248.91 333.057C2258.57 339.08 2269.14 342.091 2280.62 342.091C2288.46 342.091 2295.62 340.813 2302.09 338.256C2308.57 335.642 2314.25 332.119 2319.14 327.688C2324.08 323.199 2328.12 318.17 2331.24 312.602C2334.37 307.034 2336.5 301.295 2337.63 295.386H2348.54C2347.29 302.432 2344.88 309.335 2341.3 316.097C2337.78 322.858 2333.12 328.994 2327.32 334.506C2321.58 339.96 2314.79 344.307 2306.95 347.545C2299.17 350.727 2290.39 352.318 2280.62 352.318C2266.07 352.318 2253.26 348.625 2242.18 341.239C2231.1 333.795 2222.41 323.341 2216.1 309.875C2209.85 296.409 2206.72 280.67 2206.72 262.659C2206.72 244.648 2209.85 228.909 2216.1 215.443C2222.41 201.977 2231.1 191.551 2242.18 184.165C2253.26 176.722 2266.07 173 2280.62 173C2290.39 173 2299.17 174.619 2306.95 177.858C2314.79 181.04 2321.58 185.358 2327.32 190.812C2333.12 196.21 2337.78 202.29 2341.3 209.051C2344.88 215.813 2347.29 222.773 2348.54 229.932Z" fill="black"/>
<path d="M2528.33 262.659C2528.33 280.67 2525.2 296.409 2518.95 309.875C2512.7 323.284 2504.01 333.71 2492.88 341.153C2481.8 348.597 2469.01 352.318 2454.52 352.318C2439.98 352.318 2427.14 348.597 2416 341.153C2404.92 333.653 2396.26 323.199 2390.01 309.79C2383.76 296.324 2380.63 280.614 2380.63 262.659C2380.63 244.648 2383.76 228.937 2390.01 215.528C2396.31 202.119 2405.01 191.693 2416.09 184.25C2427.16 176.75 2439.98 173 2454.52 173C2469.01 173 2481.8 176.722 2492.88 184.165C2504.01 191.608 2512.7 202.062 2518.95 215.528C2525.2 228.937 2528.33 244.648 2528.33 262.659ZM2517.93 262.659C2517.93 246.466 2515.2 232.432 2509.75 220.557C2504.35 208.682 2496.88 199.506 2487.34 193.028C2477.79 186.494 2466.85 183.227 2454.52 183.227C2442.19 183.227 2431.26 186.466 2421.71 192.943C2412.16 199.364 2404.66 208.54 2399.21 220.472C2393.81 232.347 2391.11 246.409 2391.11 262.659C2391.11 278.739 2393.78 292.744 2399.12 304.676C2404.52 316.551 2411.99 325.756 2421.54 332.29C2431.09 338.824 2442.08 342.091 2454.52 342.091C2466.85 342.091 2477.79 338.852 2487.34 332.375C2496.88 325.841 2504.35 316.636 2509.75 304.761C2515.2 292.886 2517.93 278.852 2517.93 262.659Z" fill="black"/>
<path d="M2569.96 349.932V175.386H2580.62V340.045H2665.84V349.932H2569.96Z" fill="black"/>
<defs>
<clipPath id="clip0_422_2839">
<rect width="601" height="520" fill="white" transform="translate(65 92)"/>
</clipPath>
</defs>
</svg>
