<svg width="448" height="448" viewBox="0 0 448 448" fill="none" xmlns="http://www.w3.org/2000/svg">
<path d="M367.9 48V0H80V48H0V86C0 118 9.5 148.79 26.76 172.61C40.09 191.01 60.93 203.71 79.67 209.82C85.11 239.11 99.87 266.95 129.86 289.65C151.86 306.31 178.31 318.52 202 323.51V404H128V448H320V404H246V323.51C269.69 318.51 296.13 306.31 318.14 289.65C348.14 266.95 362.89 239.11 368.33 209.82C387.07 203.71 407.91 191.01 421.24 172.61C438.5 148.79 448 118 448 86V48H367.9ZM62.4 146.8C51.72 132.12 45.23 112.4 44.16 92H80V159.37C76.06 158.23 67.08 153.25 62.4 146.8ZM385.6 146.8C381 153.41 374 159.38 368 159.38C368 136.98 368 113.09 367.95 92H403.85C402.77 112.4 396 131.9 385.6 146.8Z" fill="url(#paint0_radial_35_217)"/>
<path d="M273.331 134.461C277.341 158.475 261.151 181.189 237.169 185.194C213.188 189.199 190.495 172.978 186.485 148.964C182.475 124.949 198.665 102.235 222.647 98.2305C246.628 94.2257 269.321 110.446 273.331 134.461Z" stroke="url(#paint1_linear_35_217)" stroke-opacity="0.32" stroke-width="0.5"/>
<g filter="url(#filter0_ddi_35_217)">
<ellipse cx="229.5" cy="141.5" rx="48.6688" ry="48.6688" transform="rotate(-7.35664 229.5 141.5)" fill="url(#paint2_radial_35_217)"/>
<ellipse cx="229.5" cy="141.5" rx="48.6688" ry="48.6688" transform="rotate(-7.35664 229.5 141.5)" fill="url(#paint3_linear_35_217)" fill-opacity="0.2"/>
<ellipse cx="229.5" cy="141.5" rx="48.6688" ry="48.6688" transform="rotate(-7.35664 229.5 141.5)" stroke="url(#paint4_linear_35_217)" stroke-opacity="0.1" stroke-width="2"/>
<ellipse cx="229.5" cy="141.5" rx="48.6688" ry="48.6688" transform="rotate(-7.35664 229.5 141.5)" stroke="url(#paint5_linear_35_217)" stroke-opacity="0.26" stroke-width="2"/>
<ellipse cx="229.5" cy="141.5" rx="48.6688" ry="48.6688" transform="rotate(-7.35664 229.5 141.5)" stroke="url(#paint6_linear_35_217)" stroke-opacity="0.71" stroke-width="2"/>
</g>
<g filter="url(#filter1_d_35_217)">
<mask id="path-5-outside-1_35_217" maskUnits="userSpaceOnUse" x="220" y="126" width="17" height="33" fill="black">
<rect fill="white" x="220" y="126" width="17" height="33"/>
<path d="M235.766 126.727V158H228.223V133.782H228.04L221.046 138.058V131.522L228.757 126.727H235.766Z"/>
</mask>
<path d="M235.766 126.727V158H228.223V133.782H228.04L221.046 138.058V131.522L228.757 126.727H235.766Z" fill="#364152" shape-rendering="crispEdges"/>
<path d="M235.766 126.727H236.266V126.227H235.766V126.727ZM235.766 158V158.5H236.266V158H235.766ZM228.223 158H227.723V158.5H228.223V158ZM228.223 133.782H228.723V133.282H228.223V133.782ZM228.04 133.782V133.282H227.899L227.779 133.355L228.04 133.782ZM221.046 138.058H220.546V138.949L221.307 138.484L221.046 138.058ZM221.046 131.522L220.782 131.097L220.546 131.244V131.522H221.046ZM228.757 126.727V126.227H228.615L228.493 126.303L228.757 126.727ZM235.266 126.727V158H236.266V126.727H235.266ZM235.766 157.5H228.223V158.5H235.766V157.5ZM228.723 158V133.782H227.723V158H228.723ZM228.223 133.282H228.04V134.282H228.223V133.282ZM227.779 133.355L220.785 137.631L221.307 138.484L228.301 134.209L227.779 133.355ZM221.546 138.058V131.522H220.546V138.058H221.546ZM221.31 131.947L229.021 127.152L228.493 126.303L220.782 131.097L221.31 131.947ZM228.757 127.227H235.766V126.227H228.757V127.227Z" fill="white" fill-opacity="0.94" mask="url(#path-5-outside-1_35_217)"/>
</g>
<defs>
<filter id="filter0_ddi_35_217" x="176.826" y="92.8258" width="105.348" height="105.348" filterUnits="userSpaceOnUse" color-interpolation-filters="sRGB">
<feFlood flood-opacity="0" result="BackgroundImageFix"/>
<feColorMatrix in="SourceAlpha" type="matrix" values="0 0 0 0 0 0 0 0 0 0 0 0 0 0 0 0 0 0 127 0" result="hardAlpha"/>
<feOffset dy="4"/>
<feGaussianBlur stdDeviation="2"/>
<feComposite in2="hardAlpha" operator="out"/>
<feColorMatrix type="matrix" values="0 0 0 0 0 0 0 0 0 0 0 0 0 0 0 0 0 0 0.25 0"/>
<feBlend mode="normal" in2="BackgroundImageFix" result="effect1_dropShadow_35_217"/>
<feColorMatrix in="SourceAlpha" type="matrix" values="0 0 0 0 0 0 0 0 0 0 0 0 0 0 0 0 0 0 127 0" result="hardAlpha"/>
<feOffset dy="4"/>
<feGaussianBlur stdDeviation="2"/>
<feComposite in2="hardAlpha" operator="out"/>
<feColorMatrix type="matrix" values="0 0 0 0 0 0 0 0 0 0 0 0 0 0 0 0 0 0 0.25 0"/>
<feBlend mode="normal" in2="effect1_dropShadow_35_217" result="effect2_dropShadow_35_217"/>
<feBlend mode="normal" in="SourceGraphic" in2="effect2_dropShadow_35_217" result="shape"/>
<feColorMatrix in="SourceAlpha" type="matrix" values="0 0 0 0 0 0 0 0 0 0 0 0 0 0 0 0 0 0 127 0" result="hardAlpha"/>
<feOffset dy="4"/>
<feGaussianBlur stdDeviation="2"/>
<feComposite in2="hardAlpha" operator="arithmetic" k2="-1" k3="1"/>
<feColorMatrix type="matrix" values="0 0 0 0 0 0 0 0 0 0 0 0 0 0 0 0 0 0 0.25 0"/>
<feBlend mode="normal" in2="shape" result="effect3_innerShadow_35_217"/>
</filter>
<filter id="filter1_d_35_217" x="217.046" y="126.727" width="22.7202" height="39.2727" filterUnits="userSpaceOnUse" color-interpolation-filters="sRGB">
<feFlood flood-opacity="0" result="BackgroundImageFix"/>
<feColorMatrix in="SourceAlpha" type="matrix" values="0 0 0 0 0 0 0 0 0 0 0 0 0 0 0 0 0 0 127 0" result="hardAlpha"/>
<feOffset dy="4"/>
<feGaussianBlur stdDeviation="2"/>
<feComposite in2="hardAlpha" operator="out"/>
<feColorMatrix type="matrix" values="0 0 0 0 0 0 0 0 0 0 0 0 0 0 0 0 0 0 0.25 0"/>
<feBlend mode="normal" in2="BackgroundImageFix" result="effect1_dropShadow_35_217"/>
<feBlend mode="normal" in="SourceGraphic" in2="effect1_dropShadow_35_217" result="shape"/>
</filter>
<radialGradient id="paint0_radial_35_217" cx="0" cy="0" r="1" gradientUnits="userSpaceOnUse" gradientTransform="translate(224 140.5) rotate(90) scale(181.5)">
<stop stop-color="#9AA4B2"/>
<stop offset="1"/>
</radialGradient>
<linearGradient id="paint1_linear_35_217" x1="218.855" y1="94.3138" x2="241.802" y2="190.455" gradientUnits="userSpaceOnUse">
<stop offset="0.195"/>
<stop offset="0.59" stop-color="#969696"/>
<stop offset="1"/>
</linearGradient>
<radialGradient id="paint2_radial_35_217" cx="0" cy="0" r="1" gradientUnits="userSpaceOnUse" gradientTransform="translate(229.5 141.5) rotate(90) scale(48.6688 48.6688)">
<stop stop-color="white"/>
<stop offset="1" stop-color="#F2F4F7"/>
</radialGradient>
<linearGradient id="paint3_linear_35_217" x1="227.732" y1="142.533" x2="229.447" y2="194.531" gradientUnits="userSpaceOnUse">
<stop offset="0.239763" stop-color="white" stop-opacity="0.79"/>
<stop offset="0.933015"/>
</linearGradient>
<linearGradient id="paint4_linear_35_217" x1="230.138" y1="92.4087" x2="232.745" y2="190.561" gradientUnits="userSpaceOnUse">
<stop stop-color="#555759"/>
<stop offset="1" stop-color="#030712"/>
</linearGradient>
<linearGradient id="paint5_linear_35_217" x1="230.879" y1="139.986" x2="225.027" y2="195.504" gradientUnits="userSpaceOnUse">
<stop stop-opacity="0"/>
<stop offset="0.782604"/>
</linearGradient>
<linearGradient id="paint6_linear_35_217" x1="257.151" y1="103.054" x2="217.467" y2="187.442" gradientUnits="userSpaceOnUse">
<stop offset="0.5" stop-color="white"/>
<stop offset="1" stop-color="white" stop-opacity="0"/>
</linearGradient>
</defs>
</svg>
